<svg xmlns="http://www.w3.org/2000/svg" viewBox="0 0 1200 1200" style="enable-background:new 0 0 1200 1200" xml:space="preserve"><path d="M485.7 677.4c2.5.8 5.1 1.4 7.7 1.7 0 0-10.9 4.1-33.4-3.6 0 0-16.9-6.9-29.5-5.7-14.7 1.3-24.8 20.4-24.8 20.4 2.9-1.6 6-2.8 9.2-3.6 10-2 6.6-.3 6.6-.3s-19.2 8.1-20.5 15.2c-.3 1.8 5.1-3.3 19.3-2.8 17.5.5 32.7 10.7 38.9 12.4 12.8 3.4 31.1 4.2 48-9 0 0 15.5-9.7 20.3-27.7 1.2-5 2-10.1 2.2-15.2.1-4.5-.4-9-1.4-13.5-.1-.1-9.2 21-42.6 31.7z" style="fill-rule:evenodd;clip-rule:evenodd;fill:#fff"/><linearGradient id="a" gradientUnits="userSpaceOnUse" x1="616.215" y1="746.264" x2="633.579" y2="315.398" gradientTransform="matrix(1 0 0 -1 0 1202)"><stop offset="0" style="stop-color:#dadb48"/><stop offset=".656" style="stop-color:#637621"/></linearGradient><path d="M816.1 874.9c33.9-42.5 52.3-95.2 52.3-149.6 0-54.3-18.5-107.1-52.3-149.6l217.1-23.9s22.6 61.9 28.5 95c.8 4.2 2.1 12.8 2.1 12.8s-33.7 81.8-85.4 126.7c-69.4 60.4-162.3 88.6-162.3 88.6zm-514.1-3-83.2 15.4c-26.4-66.9-36.1-139.2-28.1-210.6 7.9-71.5 33.3-139.9 73.7-199.3 1.8-2.6 5.4-7.7 5.4-7.7l91.9 258.9L302 871.9z" style="fill-rule:evenodd;clip-rule:evenodd;fill:url(#a)"/><linearGradient id="b" gradientUnits="userSpaceOnUse" x1="626.248" y1="970.237" x2="415.154" y2="970.237" gradientTransform="matrix(1 0 0 -1 0 1202)"><stop offset="0" style="stop-color:#ec6f01"/><stop offset="1" style="stop-color:#f4b23d"/></linearGradient><path d="M603.1 340.9c.3-.4.5-.5.8-.9 2.2-2.4 53.9-57.9-7.7-152-45.5-69.3-161.2-67.4-208.5-103.5 3.5 27.8 30.7 52.9 27.8 90.9-1.2 12.6-3.5 25-7 37.1-5.6 21.7-10.8 42.4-3 82.9 6.1 31.6 20.5 54.6 42.8 68.5 25.6 15.8 61 19.3 97.3 9.5 24.2-6.6 45.8-18.8 57.5-32.5z" style="fill-rule:evenodd;clip-rule:evenodd;fill:url(#b)"/><linearGradient id="c" gradientUnits="userSpaceOnUse" x1="609.122" y1="934.749" x2="596.644" y2="1138.563" gradientTransform="matrix(1 0 0 -1 0 1202)"><stop offset="0" style="stop-color:#f4b33e"/><stop offset="1" style="stop-color:#fb6f1b"/></linearGradient><path d="M680.2 300.3c13.3-22.9 15.8-49.6 7.6-79.2-11.4-41.4-33-68.6-50.5-90.4-5.5-6.9-10.6-13.3-14.8-19.4-16.6-24.4-23.8-54-20.2-83.2-21.1 15.2-61.7 43.8-87.6 74.3 37.5 18 66.8 37.6 89.9 72.9 39.5 60.2 38.8 108.8 31.3 139-2.1 8.3 13.8 15.7 10.9 22.1 13.5-9.6 24.8-21.9 33.4-36.1z" style="fill-rule:evenodd;clip-rule:evenodd;fill:url(#c)"/><linearGradient id="d" gradientUnits="userSpaceOnUse" x1="231.063" y1="743.549" x2="973.529" y2="450.305" gradientTransform="matrix(1 0 0 -1 0 1202)"><stop offset="0" style="stop-color:#fb6d1a"/><stop offset="1" style="stop-color:#f3b23e"/></linearGradient><path d="M967.7 550.3c-44.1-4.2-133.4-15.1-133.4-15.1-200.9-11.2-314.9 49.1-400.9 128-66.4 66-125.6 237-125.6 237l-71.9-3.9s22.9-68.2 49.4-117.9c30.4-56.9 37.2-52.3 30.3-61.7-32.1-44.1-47.2-78.8-60.1-153 0 0 15.1 11.9 26.5 4.6 0 0-25.9-45-29.9-93.6-7.1-86.1 33.2-203.7 34.2-206.4-.4 1.2-2.5 11.3 21.1 26.4 1.7-7.1 3.5-14.1 5.4-20.9 8.3-40.6 30.6-129.3 75.1-189.4 0 0 24.9 86.9 87.4 126.3 121.7 76.8 197.9 77.2 197.9 77.2 171.9 19.2 245.3 103.6 245.3 103.6C1041.9 524.6 1154 523.4 1154 523.4c-40.3 38.5-186.3 26.9-186.3 26.9zm-681.5-282v-.1.1z" style="fill-rule:evenodd;clip-rule:evenodd;fill:url(#d)"/><linearGradient id="e" gradientUnits="userSpaceOnUse" x1="397.435" y1="314.826" x2="1102.465" y2="624.707" gradientTransform="matrix(1 0 0 -1 0 1202)"><stop offset="0" style="stop-color:#f3b63f"/><stop offset="1" style="stop-color:#fb701c"/></linearGradient><path d="M1156.1 523.4s-17.5 96.8-109.2 108.1c0 0-332.6-2.1-356.9 300l-5.6 84.9-399-116.3S323 771.8 405.3 668.8c0 0 139.7-197.3 537.7-145.3 0 0 46.5 9.4 111.7 15.5 55 5.1 101.4-15.6 101.4-15.6z" style="fill-rule:evenodd;clip-rule:evenodd;fill:url(#e)"/><path d="M929.8 477.3s-86.4-44.9-193.9-40.7c0 0 58.5-45.7 137.5-34.5l56.4 75.2z" style="fill-rule:evenodd;clip-rule:evenodd;fill:#722b00"/><linearGradient id="f" gradientUnits="userSpaceOnUse" x1="324.74" y1="86.733" x2="935.144" y2="467.327" gradientTransform="matrix(1 0 0 -1 0 1202)"><stop offset="0" style="stop-color:#ec6f00"/><stop offset="1" style="stop-color:#f4b33e"/></linearGradient><path d="M711.3 890.1s28.1 19.4 72.7 9.1c0 0-72.1 41.8-224.1-15.5 0 0-156.7-70.1-267-54.1C222 839.9 159.4 896.2 121.4 939c-45.8 51.8-40.1 27.6 75 13.3 27.7-3.4 11.7 4.4 11.7 4.4S54.4 1021.2 44 1078.5c-2.6 14.3 40.5-26.1 154.2-22.5 139.6 4.4 261 85.4 310.9 98.8 102.2 27.3 248.8 33.6 383.3-71.9 0 0 124.1-77.9 162.5-221.8 10-39.9 15.9-80.8 17.6-121.9 2-53.6-14.3-110-14.3-110s-90.6 201.1-346.9 260.9z" style="fill-rule:evenodd;clip-rule:evenodd;fill:url(#f)"/></svg>