<svg xmlns="http://www.w3.org/2000/svg" viewBox="0 0 500 500" fill="none"><path d="M250 498.3c137.132 0 248.3-111.168 248.3-248.3S387.132 1.7 250 1.7 1.7 112.868 1.7 250 112.868 498.3 250 498.3Z" fill="#F97316"/><path fill-rule="evenodd" clip-rule="evenodd" d="M267.656 157.509c-3.336-6.312-9.967-10.614-17.604-10.614-10.988 0-19.896 8.908-19.896 19.896 0 10.989 8.908 19.897 19.896 19.897.298 0 .593-.007.887-.02 82.608.419 79.477 129.929-.989 129.929-10.989 0-19.897 8.908-19.897 19.897 0 5.81 2.49 11.038 6.462 14.676 11.708 17.207 8.826 39.901.186 56.519a17.629 17.629 0 0 0-4.345 11.615c0 9.773 7.923 17.696 17.697 17.696 9.773 0 17.696-7.923 17.696-17.696 0-4.21-1.47-8.077-3.925-11.115-8.465-17.941-7.849-39.637 1.607-59.196a19.855 19.855 0 0 0 3.2-5.637c13.083-18.826 32.287-29.445 55.121-29.445 10.989 0 19.897-8.908 19.897-19.897 0-4.796-1.697-9.196-4.524-12.632-6.103-10.662-8.466-23.88-7.539-36.168.09-1.073.2-2.171.33-3.295.853-6.805 2.736-13.215 5.568-18.609 2.193-4.177 6.165-8.735 6.165-14.399 0-10.988-8.908-19.896-19.897-19.896h-.145c-11.167-.198-22.244-2.775-31.995-8.222-9.711-5.424-17.938-13.924-23.956-23.284Zm67.771 120.393a30.8 30.8 0 0 1-.148-.356l.155.36-.007-.004Z" fill="#fff"/><path d="M196.341 294.29c0 10.989-8.908 19.897-19.897 19.897-10.989 0-19.897-8.908-19.897-19.897 0-10.988 8.908-19.896 19.897-19.896 10.989 0 19.897 8.908 19.897 19.896ZM136.79 249.806c0 6.204-5.03 11.233-11.234 11.233-6.203 0-11.233-5.029-11.233-11.233 0-6.204 5.03-11.234 11.233-11.234 6.204 0 11.234 5.03 11.234 11.234ZM196.747 208.676c0 10.988-8.908 19.896-19.897 19.896-10.988 0-19.896-8.908-19.896-19.896 0-10.989 8.908-19.897 19.896-19.897 10.989 0 19.897 8.908 19.897 19.897ZM189.98 155.166c6.204 0 11.234-5.029 11.234-11.233 0-6.204-5.03-11.233-11.234-11.233s-11.233 5.029-11.233 11.233c0 6.204 5.029 11.233 11.233 11.233ZM106.696 190.349c9.774 0 17.696-7.923 17.696-17.697 0-9.773-7.922-17.696-17.696-17.696-9.773 0-17.696 7.923-17.696 17.696 0 9.774 7.923 17.697 17.696 17.697ZM124.765 336.872c0 9.773-7.923 17.696-17.696 17.696-9.774 0-17.696-7.923-17.696-17.696 0-9.774 7.922-17.697 17.696-17.697 9.773 0 17.696 7.923 17.696 17.697ZM189.722 367.119c6.204 0 11.233-5.03 11.233-11.234s-5.029-11.233-11.233-11.233c-6.204 0-11.233 5.029-11.233 11.233 0 6.204 5.029 11.234 11.233 11.234ZM325.724 356.322c0 6.204-5.029 11.233-11.233 11.233-6.204 0-11.233-5.029-11.233-11.233 0-6.204 5.029-11.234 11.233-11.234 6.204 0 11.233 5.03 11.233 11.234ZM392.73 355.032c9.773 0 17.696-7.923 17.696-17.696 0-9.773-7.923-17.696-17.696-17.696-9.773 0-17.696 7.923-17.696 17.696 0 9.773 7.923 17.696 17.696 17.696ZM372.822 261.763c6.204 0 11.233-5.029 11.233-11.233 0-6.204-5.029-11.234-11.233-11.234-6.204 0-11.233 5.03-11.233 11.234s5.029 11.233 11.233 11.233ZM410.426 172.652c0 9.774-7.923 17.697-17.696 17.697-9.773 0-17.696-7.923-17.696-17.697 0-9.773 7.923-17.696 17.696-17.696 9.773 0 17.696 7.923 17.696 17.696ZM325.446 144.605c0 6.204-5.029 11.233-11.233 11.233-6.204 0-11.233-5.029-11.233-11.233 0-6.204 5.029-11.234 11.233-11.234 6.204 0 11.233 5.03 11.233 11.234ZM267.749 89.696c0 9.774-7.923 17.696-17.697 17.696-9.773 0-17.696-7.922-17.696-17.696 0-9.773 7.923-17.696 17.696-17.696 9.774 0 17.697 7.923 17.697 17.696Z" fill="#fff"/></svg>